<svg width="48" height="48" viewBox="0 0 48 48" fill="none"
    xmlns="http://www.w3.org/2000/svg">
    <rect width="48" height="48" rx="6" fill="url(#paint0_linear_2222_8581)" fill-opacity="0.7"/>
    <path opacity="0.2" fill-rule="evenodd" clip-rule="evenodd" d="M27.4435 32.5475L33.3727 21.8735C34.5379 19.7759 31.3927 18.0275 30.2263 20.1263L25.2595 29.0639L20.9227 25.5947C19.0483 24.0947 16.7995 26.9063 18.6739 28.4051L24.5611 33.1151C24.6271 33.1751 24.6979 33.2291 24.7723 33.2795C25.2367 33.6119 25.7191 33.6899 26.1523 33.5951C26.5891 33.5183 27.0055 33.2639 27.3091 32.7791C27.3583 32.7059 27.4039 32.6279 27.4411 32.5475" fill="white"/>
    <path d="M29.9229 18.8912L23.9229 29.6912C23.5341 30.3908 22.4853 29.8076 22.8741 29.108L28.8741 18.308C29.2629 17.6084 30.3117 18.1916 29.9229 18.8912Z" fill="white"/>
    <path d="M17.7726 24.132L23.7726 28.932C24.3966 29.4312 23.6478 30.3684 23.0238 29.868L17.0238 25.068C16.3998 24.5688 17.1486 23.6316 17.7726 24.132Z" fill="white"/>
    <defs>
        <linearGradient id="paint0_linear_2222_8581" x1="1.33043" y1="13.5738" x2="36.665" y2="13.9709" gradientUnits="userSpaceOnUse">
            <stop stop-color="#3E2AB9"/>
            <stop offset="1" stop-color="#498AC5"/>
        </linearGradient>
    </defs>
</svg>
