<svg width="49" height="48" viewBox="0 0 49 48" fill="none"
    xmlns="http://www.w3.org/2000/svg">
    <rect x="0.5" width="48" height="48" rx="6" fill="url(#paint0_linear_2222_8618)" fill-opacity="0.7"/>
    <g clip-path="url(#clip0_2222_8618)">
        <g opacity="0.2">
            <path d="M18.0401 22.1946C17.7797 21.1242 18.9773 20.2974 19.8857 20.9214L22.0817 22.4286C22.2156 22.5207 22.3668 22.5846 22.5261 22.6165C22.6854 22.6483 22.8496 22.6475 23.0086 22.6141C23.1675 22.5807 23.3181 22.5153 23.4511 22.4219C23.584 22.3286 23.6967 22.2092 23.7821 22.071L25.2749 19.6518C25.3824 19.4776 25.5327 19.3339 25.7114 19.2341C25.8902 19.1344 26.0915 19.082 26.2961 19.082C26.5008 19.082 26.7021 19.1344 26.8808 19.2341C27.0596 19.3339 27.2099 19.4776 27.3173 19.6518L28.8101 22.071C28.8956 22.2092 29.0082 22.3286 29.1412 22.4219C29.2742 22.5153 29.4247 22.5807 29.5837 22.6141C29.7427 22.6475 29.9069 22.6483 30.0662 22.6165C30.2255 22.5846 30.3767 22.5207 30.5105 22.4286L32.7065 20.9214C33.6149 20.2974 34.8125 21.1242 34.5521 22.1934L32.8721 29.0838C32.8085 29.3449 32.659 29.577 32.4478 29.743C32.2365 29.909 31.9756 29.9993 31.7069 29.9994H20.8841C20.6155 29.9993 20.3546 29.909 20.1433 29.743C19.9321 29.577 19.7826 29.3449 19.7189 29.0838L18.0401 22.1946Z" fill="white"/>
            <path fill-rule="evenodd" clip-rule="evenodd" d="M31.4861 24.6378C30.6801 25.0549 29.7462 25.1521 28.8715 24.91C27.9968 24.6679 27.2459 24.1044 26.7689 23.3322L26.2961 22.5666L25.8233 23.3322C25.3464 24.1041 24.5957 24.6674 23.7213 24.9095C22.8469 25.1516 21.9133 25.0545 21.1073 24.6378L21.8273 27.5994H30.7637L31.4861 24.6378ZM19.8857 20.9214C18.9773 20.2974 17.7797 21.1242 18.0401 22.1934L19.7201 29.0838C19.7838 29.3447 19.933 29.5766 20.1441 29.7426C20.3551 29.9086 20.6157 29.999 20.8841 29.9994H31.7057C31.9744 29.9993 32.2353 29.909 32.4466 29.743C32.6578 29.577 32.8073 29.3449 32.8709 29.0838L34.5509 22.1946C34.8113 21.1242 33.6137 20.2974 32.7053 20.9214L30.5093 22.4286C30.3755 22.5207 30.2243 22.5846 30.065 22.6165C29.9057 22.6483 29.7415 22.6475 29.5825 22.6141C29.4235 22.5807 29.273 22.5153 29.14 22.4219C29.007 22.3286 28.8944 22.2092 28.8089 22.071L27.3161 19.6518C27.2087 19.4776 27.0584 19.3339 26.8796 19.2341C26.7009 19.1344 26.4996 19.082 26.2949 19.082C26.0903 19.082 25.889 19.1344 25.7102 19.2341C25.5315 19.3339 25.3812 19.4776 25.2737 19.6518L23.7821 22.071C23.6967 22.2092 23.584 22.3286 23.4511 22.4219C23.3181 22.5153 23.1675 22.5807 23.0086 22.6141C22.8496 22.6475 22.6854 22.6483 22.5261 22.6165C22.3668 22.5846 22.2156 22.5207 22.0817 22.4286L19.8857 20.9214Z" fill="white"/>
            <path d="M27.4977 16.7996C27.4977 17.1179 27.3712 17.4231 27.1462 17.6481C26.9211 17.8732 26.6159 17.9996 26.2977 17.9996C25.9794 17.9996 25.6742 17.8732 25.4491 17.6481C25.2241 17.4231 25.0977 17.1179 25.0977 16.7996C25.0977 16.4813 25.2241 16.1761 25.4491 15.9511C25.6742 15.726 25.9794 15.5996 26.2977 15.5996C26.6159 15.5996 26.9211 15.726 27.1462 15.9511C27.3712 16.1761 27.4977 16.4813 27.4977 16.7996ZM36.4977 19.1996C36.4977 19.5179 36.3712 19.8231 36.1462 20.0481C35.9211 20.2732 35.6159 20.3996 35.2977 20.3996C34.9794 20.3996 34.6742 20.2732 34.4491 20.0481C34.2241 19.8231 34.0977 19.5179 34.0977 19.1996C34.0977 18.8813 34.2241 18.5761 34.4491 18.3511C34.6742 18.126 34.9794 17.9996 35.2977 17.9996C35.6159 17.9996 35.9211 18.126 36.1462 18.3511C36.3712 18.5761 36.4977 18.8813 36.4977 19.1996Z" fill="white"/>
            <path fill-rule="evenodd" clip-rule="evenodd" d="M19.9961 31.7994C19.9961 31.5607 20.0909 31.3318 20.2597 31.163C20.4285 30.9942 20.6574 30.8994 20.8961 30.8994H31.3805C31.6192 30.8994 31.8481 30.9942 32.0169 31.163C32.1857 31.3318 32.2805 31.5607 32.2805 31.7994C32.2805 32.0381 32.1857 32.267 32.0169 32.4358C31.8481 32.6046 31.6192 32.6994 31.3805 32.6994H20.8961C20.6574 32.6994 20.4285 32.6046 20.2597 32.4358C20.0909 32.267 19.9961 32.0381 19.9961 31.7994Z" fill="white"/>
            <path d="M18.4977 19.2C18.4977 19.5183 18.3712 19.8235 18.1462 20.0485C17.9211 20.2736 17.6159 20.4 17.2977 20.4C16.9794 20.4 16.6742 20.2736 16.4491 20.0485C16.2241 19.8235 16.0977 19.5183 16.0977 19.2C16.0977 18.8817 16.2241 18.5765 16.4491 18.3515C16.6742 18.1264 16.9794 18 17.2977 18C17.6159 18 17.9211 18.1264 18.1462 18.3515C18.3712 18.5765 18.4977 18.8817 18.4977 19.2Z" fill="white"/>
        </g>
        <path fill-rule="evenodd" clip-rule="evenodd" d="M30.3732 28.5809L32.1912 21.6617L29.5344 23.3537C29.0047 23.6915 28.3635 23.808 27.7488 23.6783C27.134 23.5487 26.5946 23.1831 26.2464 22.6601L24.498 20.0333L22.7484 22.6613C22.4 23.1841 21.8606 23.5494 21.2458 23.6789C20.6311 23.8083 19.9901 23.6916 19.4604 23.3537L16.806 21.6617L18.624 28.5809H30.3732ZM17.4492 20.6489C16.5288 20.0621 15.366 20.9105 15.6432 21.9665L17.4624 28.8857C17.5298 29.1421 17.6802 29.369 17.8901 29.531C18.1 29.693 18.3577 29.7808 18.6228 29.7809H30.3732C30.6384 29.7808 30.896 29.693 31.106 29.531C31.3159 29.369 31.4663 29.1421 31.5336 28.8857L33.3528 21.9665C33.6288 20.9105 32.4672 20.0633 31.5468 20.6489L28.89 22.3409C28.6253 22.5099 28.3048 22.5684 27.9975 22.5037C27.6901 22.4391 27.4203 22.2566 27.246 21.9953L25.4964 19.3673C25.3868 19.2029 25.2384 19.0682 25.0642 18.975C24.89 18.8818 24.6956 18.833 24.498 18.833C24.3005 18.833 24.106 18.8818 23.9318 18.975C23.7577 19.0682 23.6092 19.2029 23.4996 19.3673L21.75 21.9953C21.5759 22.2568 21.3062 22.4396 20.9988 22.5044C20.6915 22.5692 20.3709 22.511 20.106 22.3421L17.4492 20.6489Z" fill="white"/>
        <path d="M25.6309 16.7334C25.6312 17.0341 25.512 17.3227 25.2996 17.5356C25.0871 17.7485 24.7988 17.8683 24.4981 17.8686C24.1973 17.8689 23.9088 17.7497 23.6959 17.5373C23.483 17.3249 23.3632 17.0365 23.3629 16.7358C23.3626 16.435 23.4817 16.1465 23.6942 15.9336C23.9066 15.7207 24.1949 15.6009 24.4957 15.6006C24.7964 15.6003 25.085 15.7194 25.2979 15.9319C25.5108 16.1443 25.6306 16.4326 25.6309 16.7334ZM34.6981 19.0026C34.6982 19.3033 34.5789 19.5918 34.3664 19.8046C34.1538 20.0174 33.8654 20.137 33.5647 20.1372C33.2639 20.1373 32.9754 20.018 32.7626 19.8055C32.5499 19.5929 32.4302 19.3045 32.4301 19.0038C32.4301 18.703 32.5496 18.4146 32.7622 18.2019C32.9749 17.9893 33.2633 17.8698 33.5641 17.8698C33.8648 17.8698 34.1533 17.9893 34.3659 18.2019C34.5786 18.4146 34.6981 18.7018 34.6981 19.0026ZM16.5649 19.0026C16.565 19.1515 16.5357 19.299 16.4788 19.4366C16.4219 19.5742 16.3384 19.6993 16.2332 19.8046C16.1279 19.91 16.0029 19.9936 15.8654 20.0506C15.7278 20.1077 15.5804 20.1371 15.4315 20.1372C15.2826 20.1373 15.1351 20.108 14.9975 20.0511C14.8599 19.9942 14.7348 19.9107 14.6294 19.8055C14.5241 19.7002 14.4405 19.5753 14.3834 19.4377C14.3264 19.3002 14.297 19.1527 14.2969 19.0038C14.2969 18.703 14.4163 18.4146 14.629 18.2019C14.8417 17.9893 15.1301 17.8698 15.4309 17.8698C15.7316 17.8698 16.0201 17.9893 16.2327 18.2019C16.4454 18.4146 16.5649 18.7018 16.5649 19.0026Z" fill="white"/>
        <path fill-rule="evenodd" clip-rule="evenodd" d="M18.7969 31.1996C18.7969 31.0405 18.8601 30.8879 18.9726 30.7753C19.0851 30.6628 19.2377 30.5996 19.3969 30.5996H29.8813C30.0404 30.5996 30.193 30.6628 30.3055 30.7753C30.4181 30.8879 30.4813 31.0405 30.4813 31.1996C30.4813 31.3587 30.4181 31.5114 30.3055 31.6239C30.193 31.7364 30.0404 31.7996 29.8813 31.7996H19.3969C19.2377 31.7996 19.0851 31.7364 18.9726 31.6239C18.8601 31.5114 18.7969 31.3587 18.7969 31.1996Z" fill="white"/>
    </g>
    <defs>
        <linearGradient id="paint0_linear_2222_8618" x1="1.83043" y1="13.5738" x2="37.165" y2="13.9709" gradientUnits="userSpaceOnUse">
            <stop stop-color="#3E2AB9"/>
            <stop offset="1" stop-color="#498AC5"/>
        </linearGradient>
        <clipPath id="clip0_2222_8618">
            <rect width="24" height="24" fill="white" transform="translate(12.5 12)"/>
        </clipPath>
    </defs>
</svg>
