<svg width="24" height="28" viewBox="0 0 24 28" fill="none"
    xmlns="http://www.w3.org/2000/svg">
    <path fill-rule="evenodd" clip-rule="evenodd" d="M14.0902 10.0818C14.9278 9.66412 15.9936 9.04932 17.0606 8.207C17.2856 8.67421 17.3102 9.08191 17.1943 9.41112C17.1122 9.64313 16.9574 9.84492 16.7538 10.0055C16.5334 10.179 16.2582 10.3053 15.9539 10.3736C15.3765 10.5036 14.7024 10.4277 14.0902 10.0818ZM14.2354 14.361L15.3442 15.0015C13.0803 16.2703 12.4649 18.6264 11.7338 20.9212C11.0028 18.6264 10.3873 16.2703 8.12355 15.0015L9.23229 14.361C9.45232 14.2779 9.59381 14.0625 9.58277 13.8276C9.48118 11.6784 10.0615 10.7281 10.8442 10.1313C11.125 9.91757 11.4314 9.81024 11.7338 9.81024C12.0362 9.81024 12.3427 9.91757 12.6235 10.1313C13.4062 10.7281 13.9865 11.6784 13.885 13.8276C13.8739 14.0625 14.0154 14.2779 14.2354 14.361ZM11.7338 0.328125C13.0154 0.362534 14.3002 0.611335 15.4153 1.09534C16.1874 1.43094 16.9079 1.87424 17.5603 2.40433C17.8549 2.64364 18.0975 2.87483 18.3648 3.14097C19.0855 3.16589 20.1389 2.36518 20.6279 1.61594C19.7863 4.37503 15.9458 7.63327 13.287 8.88002C13.286 8.87956 13.2852 8.87892 13.2844 8.87838C12.8072 8.51403 12.2706 8.33185 11.7338 8.33185C11.1971 8.33185 10.6605 8.51403 10.1833 8.87838C10.1825 8.87883 10.1818 8.87965 10.1807 8.88002C7.5218 7.63327 3.68144 4.37503 2.83984 1.61594C3.32878 2.36518 4.38212 3.16589 5.10288 3.14097C5.37021 2.87492 5.6128 2.64364 5.90733 2.40433C6.55973 1.87424 7.28021 1.43094 8.05236 1.09534C9.16749 0.611335 10.4523 0.362534 11.7338 0.328125ZM9.37741 10.0818C8.53992 9.66412 7.47407 9.04932 6.40713 8.207C6.18215 8.67421 6.1575 9.08191 6.27332 9.41112C6.35556 9.64313 6.51035 9.84492 6.71379 10.0055C6.9343 10.179 7.20957 10.3053 7.51386 10.3736C8.09124 10.5036 8.76526 10.4277 9.37741 10.0818Z" fill="#0084FF"/>
    <path fill-rule="evenodd" clip-rule="evenodd" d="M18.2298 7.17623C18.8172 6.58343 19.3348 5.92729 19.751 5.3418L19.9624 5.73964C20.6429 7.10111 20.9964 8.45711 20.9964 9.98314L20.995 12.4047L21.0078 13.66C21.057 16.7419 21.7239 19.8599 23.2344 22.7134L20.074 20.1649L17.8378 23.7937L15.4885 21.5822L11.7344 27.6743L7.98026 21.5823L5.63107 23.7938L3.39487 20.165L0.234375 22.7135C1.74489 19.86 2.41171 16.7419 2.46109 13.6601L2.47386 12.4048L2.4724 9.98323C2.4724 8.45711 2.82589 7.10111 3.50658 5.73973L3.71787 5.34189C4.13406 5.92738 4.65156 6.58343 5.23907 7.17632L5.05561 7.55737C4.6992 8.29748 4.58119 9.12502 4.85884 9.91204C5.03782 10.419 5.36447 10.8537 5.78559 11.1855C6.19448 11.5078 6.67839 11.725 7.18503 11.8391C7.51506 11.9134 7.8513 11.944 8.18535 11.9336C8.1074 12.3754 8.07336 12.8337 8.07117 13.3006L5.08993 15.0225L7.39048 16.3121C7.57435 16.4152 7.7494 16.5333 7.91382 16.6652C9.8105 18.3681 10.9508 23.4059 11.7345 25.8667C12.5182 23.4059 13.6584 18.3681 15.5552 16.6652C15.7196 16.5332 15.8947 16.4151 16.0785 16.3121L18.3791 15.0225L15.3978 13.3006C15.3956 12.8337 15.3615 12.3754 15.2836 11.9336C15.6176 11.944 15.9539 11.9134 16.2839 11.8391C16.7905 11.725 17.2745 11.5078 17.6833 11.1855C18.1044 10.8537 18.4311 10.419 18.61 9.91204C18.8877 9.12502 18.7696 8.29757 18.4133 7.55737L18.2299 7.17632L18.2298 7.17623Z" fill="#0084FF"/>
</svg>
