<svg width="48" height="48" viewBox="0 0 48 48" fill="none"
    xmlns="http://www.w3.org/2000/svg">
    <rect width="48" height="48" rx="6" fill="url(#paint0_linear_2222_8603)" fill-opacity="0.7"/>
    <g opacity="0.2">
        <path fill-rule="evenodd" clip-rule="evenodd" d="M22.0788 18.8406C21.4176 19.3362 21.1188 19.9302 21.1188 20.4846C21.1188 21.0402 21.4176 21.6342 22.0788 22.131C22.7412 22.6278 23.7108 22.971 24.8328 22.971C25.151 22.971 25.4562 23.0974 25.6813 23.3225C25.9063 23.5475 26.0328 23.8527 26.0328 24.171C26.0328 24.4892 25.9063 24.7945 25.6813 25.0195C25.4562 25.2446 25.151 25.371 24.8328 25.371C23.2416 25.371 21.7548 24.8886 20.6387 24.051C19.5227 23.2134 18.7188 21.9654 18.7188 20.4858C18.7188 19.005 19.5227 17.757 20.6387 16.9194C21.7548 16.083 23.2428 15.6006 24.8328 15.6006C27.2964 15.6006 29.6256 16.7802 30.552 18.7446C30.6877 19.0326 30.7034 19.3628 30.5958 19.6624C30.4881 19.9621 30.2658 20.2066 29.9777 20.3424C29.8351 20.4096 29.6807 20.4481 29.5232 20.4556C29.3657 20.4631 29.2083 20.4395 29.0599 20.3862C28.7603 20.2785 28.5157 20.0562 28.3799 19.7682C27.9599 18.8718 26.6495 18.0006 24.834 18.0006C23.7119 18.0006 22.7412 18.3438 22.0788 18.8406Z" fill="white"/>
        <path fill-rule="evenodd" clip-rule="evenodd" d="M27.1894 29.4998C27.8506 29.0042 28.1482 28.4102 28.1482 27.8558C28.1482 27.3002 27.8506 26.705 27.1882 26.2094C26.527 25.7126 25.5562 25.3694 24.4342 25.3694C24.1159 25.3694 23.8107 25.243 23.5856 25.0179C23.3606 24.7929 23.2342 24.4877 23.2342 24.1694C23.2342 23.8511 23.3606 23.5459 23.5856 23.3209C23.8107 23.0958 24.1159 22.9694 24.4342 22.9694C26.0266 22.9694 27.5134 23.4518 28.6294 24.2894C29.7454 25.127 30.5482 26.375 30.5482 27.8546C30.5482 29.3342 29.7454 30.5834 28.6282 31.4198C27.5122 32.2574 26.0266 32.7398 24.4342 32.7398C21.9718 32.7398 19.6414 31.5602 18.7162 29.5946C18.5804 29.3067 18.5646 28.9767 18.6722 28.6772C18.7798 28.3777 19.0019 28.1331 19.2898 27.9974C19.5776 27.8617 19.9076 27.8458 20.2072 27.9534C20.5067 28.061 20.7512 28.2831 20.887 28.571C21.3094 29.4686 22.6198 30.3398 24.4342 30.3398C25.5574 30.3398 26.527 29.9966 27.1894 29.4998ZM24.601 13.2002C24.9192 13.2002 25.2245 13.3266 25.4495 13.5517C25.6745 13.7767 25.801 14.0819 25.801 14.4002V15.6002C25.801 15.9185 25.6745 16.2237 25.4495 16.4487C25.2245 16.6738 24.9192 16.8002 24.601 16.8002C24.2827 16.8002 23.9775 16.6738 23.7524 16.4487C23.5274 16.2237 23.401 15.9185 23.401 15.6002V14.4002C23.401 14.0819 23.5274 13.7767 23.7524 13.5517C23.9775 13.3266 24.2827 13.2002 24.601 13.2002Z" fill="white"/>
        <path fill-rule="evenodd" clip-rule="evenodd" d="M24.6023 31.2002C24.9206 31.2002 25.2258 31.3266 25.4509 31.5517C25.6759 31.7767 25.8023 32.0819 25.8023 32.4002V33.6002C25.8023 33.9185 25.6759 34.2237 25.4509 34.4487C25.2258 34.6738 24.9206 34.8002 24.6023 34.8002C24.2841 34.8002 23.9789 34.6738 23.7538 34.4487C23.5288 34.2237 23.4023 33.9185 23.4023 33.6002V32.4002C23.4023 32.0819 23.5288 31.7767 23.7538 31.5517C23.9789 31.3266 24.2841 31.2002 24.6023 31.2002Z" fill="white"/>
    </g>
    <path fill-rule="evenodd" clip-rule="evenodd" d="M20.5172 18.3602C19.742 18.941 19.3172 19.6982 19.3172 20.4842C19.3172 21.2714 19.742 22.0286 20.5172 22.6106C21.2924 23.1926 22.3916 23.5706 23.6312 23.5706C23.7903 23.5706 23.9429 23.6338 24.0555 23.7463C24.168 23.8589 24.2312 24.0115 24.2312 24.1706C24.2312 24.3297 24.168 24.4823 24.0555 24.5949C23.9429 24.7074 23.7903 24.7706 23.6312 24.7706C22.1576 24.7706 20.7992 24.323 19.7972 23.5706C18.794 22.8182 18.1172 21.7346 18.1172 20.4854C18.1172 19.2374 18.794 18.1514 19.7972 17.399C20.8004 16.6478 22.1576 16.2002 23.6312 16.2002C25.9328 16.2002 28.0076 17.303 28.808 19.001C28.8758 19.145 28.8836 19.3101 28.8297 19.4598C28.7758 19.6096 28.6646 19.7318 28.5206 19.7996C28.3766 19.8674 28.2115 19.8752 28.0618 19.8213C27.912 19.7674 27.7898 19.6562 27.722 19.5122C27.1736 18.3482 25.6088 17.4002 23.6312 17.4002C22.3916 17.4002 21.2924 17.7782 20.5172 18.3602Z" fill="white"/>
    <path fill-rule="evenodd" clip-rule="evenodd" d="M26.3479 29.9798C27.1232 29.399 27.5468 28.6406 27.5468 27.8558C27.5468 27.0686 27.1232 26.3114 26.3468 25.7294C25.5716 25.1474 24.4724 24.7694 23.234 24.7694C23.0748 24.7694 22.9222 24.7062 22.8097 24.5937C22.6972 24.4811 22.634 24.3285 22.634 24.1694C22.634 24.0103 22.6972 23.8577 22.8097 23.7451C22.9222 23.6326 23.0748 23.5694 23.234 23.5694C24.7076 23.5694 26.066 24.017 27.068 24.7694C28.07 25.5218 28.7468 26.6054 28.7468 27.8546C28.7468 29.1026 28.07 30.1886 27.0668 30.9398C26.0648 31.6922 24.7076 32.1398 23.234 32.1398C20.9324 32.1398 18.8576 31.037 18.0572 29.339C17.9894 29.195 17.9816 29.0299 18.0355 28.8802C18.0894 28.7304 18.2005 28.6082 18.3446 28.5404C18.4886 28.4726 18.6536 28.4648 18.8034 28.5187C18.9531 28.5726 19.0754 28.6838 19.1432 28.8278C19.6916 29.9918 21.2552 30.9398 23.234 30.9398C24.4724 30.9398 25.5716 30.5618 26.3479 29.9798ZM22.7996 13.2002C22.9587 13.2002 23.1113 13.2634 23.2238 13.3759C23.3363 13.4885 23.3996 13.6411 23.3996 13.8002V16.2002C23.3996 16.3593 23.3363 16.5119 23.2238 16.6245C23.1113 16.737 22.9587 16.8002 22.7996 16.8002C22.6404 16.8002 22.4878 16.737 22.3753 16.6245C22.2628 16.5119 22.1996 16.3593 22.1996 16.2002V13.8002C22.1996 13.6411 22.2628 13.4885 22.3753 13.3759C22.4878 13.2634 22.6404 13.2002 22.7996 13.2002Z" fill="white"/>
    <path fill-rule="evenodd" clip-rule="evenodd" d="M22.7992 31.2002C22.9583 31.2002 23.111 31.2634 23.2235 31.3759C23.336 31.4885 23.3992 31.6411 23.3992 31.8002V34.2002C23.3992 34.3593 23.336 34.5119 23.2235 34.6245C23.111 34.737 22.9583 34.8002 22.7992 34.8002C22.6401 34.8002 22.4875 34.737 22.375 34.6245C22.2624 34.5119 22.1992 34.3593 22.1992 34.2002V31.8002C22.1992 31.6411 22.2624 31.4885 22.375 31.3759C22.4875 31.2634 22.6401 31.2002 22.7992 31.2002Z" fill="white"/>
    <defs>
        <linearGradient id="paint0_linear_2222_8603" x1="1.33043" y1="13.5738" x2="36.665" y2="13.9709" gradientUnits="userSpaceOnUse">
            <stop stop-color="#3E2AB9"/>
            <stop offset="1" stop-color="#498AC5"/>
        </linearGradient>
    </defs>
</svg>
