<svg width="48" height="48" viewBox="0 0 48 48" fill="none"
    xmlns="http://www.w3.org/2000/svg">
    <rect width="48" height="48" rx="6" fill="url(#paint0_linear_2222_8593)" fill-opacity="0.7"/>
    <g clip-path="url(#clip0_2222_8593)">
        <path opacity="0.2" d="M26.6255 23.9998H31.2011C31.3238 23.9998 31.4435 24.0374 31.5442 24.1075C31.6448 24.1776 31.7215 24.2769 31.764 24.3919C31.8065 24.507 31.8127 24.6323 31.7818 24.751C31.7509 24.8697 31.6844 24.9761 31.5911 25.0558L25.6415 30.145L19.6127 35.8366C19.1447 36.2782 18.4043 35.773 18.6443 35.1766L22.1699 26.3998H19.2011C19.1018 26.3999 19.004 26.3753 18.9165 26.3283C18.829 26.2812 18.7546 26.2132 18.6998 26.1303C18.6451 26.0474 18.6118 25.9522 18.603 25.8532C18.5941 25.7543 18.61 25.6547 18.6491 25.5634L22.2491 17.1634C22.2954 17.0554 22.3724 16.9634 22.4706 16.8987C22.5687 16.8341 22.6836 16.7997 22.8011 16.7998H28.8011C28.9005 16.7997 28.9983 16.8243 29.0858 16.8713C29.1733 16.9184 29.2477 16.9864 29.3024 17.0693C29.3572 17.1522 29.3904 17.2474 29.3993 17.3464C29.4081 17.4453 29.3923 17.5449 29.3531 17.6362L26.6255 23.9998Z" fill="white"/>
        <path fill-rule="evenodd" clip-rule="evenodd" d="M30.0019 22.2H25.4263L28.1539 15.8364C28.1931 15.7451 28.2089 15.6455 28.2001 15.5466C28.1912 15.4476 28.1579 15.3524 28.1032 15.2695C28.0485 15.1866 27.9741 15.1186 27.8866 15.0715C27.7991 15.0245 27.7013 14.9999 27.6019 15H21.6019C21.4844 14.9999 21.3695 15.0343 21.2713 15.0989C21.1732 15.1636 21.0962 15.2556 21.0499 15.3636L17.4499 23.7636C17.4108 23.8549 17.3949 23.9545 17.4038 24.0534C17.4126 24.1524 17.4459 24.2476 17.5006 24.3305C17.5553 24.4134 17.6298 24.4814 17.7173 24.5285C17.8048 24.5755 17.9026 24.6001 18.0019 24.6H20.9707L17.4451 33.3768C17.2051 33.9732 17.9455 34.4784 18.4135 34.0368L24.4423 28.3452L30.3919 23.256C30.4851 23.1763 30.5517 23.0699 30.5826 22.9512C30.6135 22.8325 30.6073 22.7072 30.5648 22.5921C30.5223 22.4771 30.4456 22.3778 30.3449 22.3077C30.2443 22.2376 30.1246 22.2 30.0019 22.2ZM24.5167 23.4H28.3771L23.6395 27.4536L19.5775 31.2876L22.4155 24.2232C22.452 24.1322 22.4656 24.0336 22.4552 23.9361C22.4447 23.8385 22.4105 23.7451 22.3556 23.6638C22.3006 23.5826 22.2266 23.5161 22.14 23.4701C22.0534 23.4241 21.9568 23.4 21.8587 23.4H18.9115L21.9979 16.2H26.6923L23.9647 22.5636C23.9256 22.6549 23.9097 22.7545 23.9186 22.8534C23.9274 22.9524 23.9607 23.0476 24.0154 23.1305C24.0701 23.2134 24.1446 23.2814 24.2321 23.3285C24.3196 23.3755 24.4174 23.4001 24.5167 23.4Z" fill="white"/>
    </g>
    <defs>
        <linearGradient id="paint0_linear_2222_8593" x1="1.33043" y1="13.5738" x2="36.665" y2="13.9709" gradientUnits="userSpaceOnUse">
            <stop stop-color="#3E2AB9"/>
            <stop offset="1" stop-color="#498AC5"/>
        </linearGradient>
        <clipPath id="clip0_2222_8593">
            <rect width="24" height="24" fill="white" transform="translate(12 12)"/>
        </clipPath>
    </defs>
</svg>
