<svg width="1440" height="1325" viewBox="0 0 1440 1325" fill="none"
    xmlns="http://www.w3.org/2000/svg">
    <path style="mix-blend-mode:color-dodge" d="M1480.17 773.64C1480.2 786.418 1468.17 796.777 1453.3 796.777C1438.43 796.777 1426.36 786.418 1426.34 773.64C1426.32 760.869 1438.35 750.526 1453.21 750.526C1468.07 750.526 1480.14 760.869 1480.17 773.64Z" fill="url(#paint0_radial_2222_9298)"/>
    <path style="mix-blend-mode:color-dodge" d="M1209.29 422.072C1209.19 462.295 1170.89 494.948 1123.74 494.948C1076.59 494.948 1038.56 462.295 1038.79 422.072C1039.02 381.906 1077.32 349.39 1124.34 349.39C1171.36 349.39 1209.39 381.906 1209.29 422.072Z" fill="url(#paint1_radial_2222_9298)"/>
    <path style="mix-blend-mode:color-dodge" d="M1157.47 369.272C1157.33 409.415 1119.03 442.003 1071.94 442.003C1024.85 442.003 986.88 409.415 987.15 369.272C987.42 329.186 1025.71 296.734 1072.68 296.734C1119.65 296.734 1157.61 329.186 1157.47 369.272Z" fill="url(#paint2_radial_2222_9298)"/>
    <path style="mix-blend-mode:color-dodge" d="M1200.28 621.532C1200.18 657.198 1166.34 686.146 1124.7 686.146C1083.06 686.146 1049.45 657.198 1049.64 621.532C1049.84 585.913 1083.67 557.07 1125.22 557.07C1166.77 557.07 1200.37 585.913 1200.28 621.532Z" fill="url(#paint3_radial_2222_9298)"/>
    <path style="mix-blend-mode:color-dodge" d="M420.21 864.759C419.63 898.729 387.15 926.303 347.66 926.303C308.17 926.303 276.7 898.729 277.37 864.759C278.04 830.828 310.52 803.352 349.92 803.352C389.32 803.352 420.79 830.828 420.22 864.759H420.21Z" fill="url(#paint4_radial_2222_9298)"/>
    <path style="mix-blend-mode:color-dodge" d="M576.809 1033.9C576.509 1055.29 556.179 1072.64 531.399 1072.64C506.619 1072.64 486.809 1055.29 487.149 1033.9C487.489 1012.53 507.819 995.224 532.559 995.224C557.299 995.224 577.109 1012.53 576.809 1033.9Z" fill="url(#paint5_radial_2222_9298)"/>
    <path style="mix-blend-mode:color-dodge" d="M1137.74 844.104C1137.63 873.253 1110.06 896.912 1076.16 896.912C1042.26 896.912 1014.93 873.261 1015.11 844.104C1015.29 814.98 1042.86 791.4 1076.69 791.4C1110.52 791.4 1137.85 814.988 1137.74 844.104Z" fill="url(#paint6_radial_2222_9298)"/>
    <path style="mix-blend-mode:color-dodge" d="M285.521 242.81C285.151 261.639 266.911 276.909 244.771 276.909C222.631 276.909 205.021 261.639 205.421 242.81C205.821 223.996 224.061 208.759 246.171 208.759C268.281 208.759 285.891 223.996 285.521 242.81Z" fill="url(#paint7_radial_2222_9298)"/>
    <path style="mix-blend-mode:color-dodge" d="M127.21 628.902C126.64 654.418 102.03 675.112 72.2398 675.112C42.4498 675.112 18.8198 654.41 19.4498 628.902C20.0698 603.41 44.6798 582.764 74.4098 582.764C104.14 582.764 127.78 603.41 127.2 628.902H127.21Z" fill="url(#paint8_radial_2222_9298)"/>
    <path style="mix-blend-mode:color-dodge" d="M573.989 414.775C573.789 429.04 560.069 440.613 543.349 440.613C526.629 440.613 513.259 429.04 513.479 414.775C513.699 400.519 527.419 388.962 544.119 388.962C560.819 388.962 574.189 400.519 573.989 414.775Z" fill="url(#paint9_radial_2222_9298)"/>
    <path style="mix-blend-mode:color-dodge" d="M607.488 458.567C607.308 471.522 594.868 482.025 579.708 482.025C564.548 482.025 552.398 471.522 552.588 458.567C552.778 445.62 565.218 435.124 580.368 435.124C595.518 435.124 607.668 445.62 607.488 458.567Z" fill="url(#paint10_radial_2222_9298)"/>
    <path style="mix-blend-mode:color-dodge" d="M682.098 276.298C681.868 294.935 663.938 310.044 642.048 310.044C620.158 310.044 602.618 294.927 602.878 276.298C603.138 257.677 621.068 242.593 642.928 242.593C664.788 242.593 682.328 257.677 682.098 276.298Z" fill="url(#paint11_radial_2222_9298)"/>
    <path style="mix-blend-mode:color-dodge" d="M1405.52 814.273C1405.54 830.964 1389.81 844.498 1370.4 844.498C1350.99 844.498 1335.25 830.956 1335.25 814.273C1335.25 797.589 1350.98 784.079 1370.37 784.079C1389.76 784.079 1405.5 797.597 1405.52 814.273Z" fill="url(#paint12_radial_2222_9298)"/>
    <path style="mix-blend-mode:color-dodge" d="M1479.4 819.939C1479.43 831.343 1468.7 840.601 1455.43 840.601C1442.16 840.601 1431.39 831.351 1431.38 819.939C1431.36 808.535 1442.09 799.293 1455.35 799.293C1468.61 799.293 1479.37 808.535 1479.4 819.939Z" fill="url(#paint13_radial_2222_9298)"/>
    <path style="mix-blend-mode:color-dodge" d="M1075.01 852.904C1074.87 880.92 1048.35 903.655 1015.78 903.655C983.209 903.655 956.969 880.92 957.169 852.904C957.369 824.921 983.889 802.25 1016.4 802.25C1048.91 802.25 1075.15 824.921 1075.01 852.904Z" fill="url(#paint14_radial_2222_9298)"/>
    <path style="mix-blend-mode:color-dodge" d="M777.888 898.906C777.578 928.175 749.778 951.923 715.778 951.923C681.778 951.923 654.528 928.175 654.898 898.906C655.268 869.669 683.078 845.993 716.998 845.993C750.918 845.993 778.178 869.669 777.878 898.906H777.888Z" fill="url(#paint15_radial_2222_9298)"/>
    <path style="mix-blend-mode:color-dodge" d="M666.858 1180.42C666.588 1201.91 646.238 1219.35 621.408 1219.35C596.578 1219.35 576.688 1201.91 576.988 1180.42C577.288 1158.95 597.638 1141.55 622.438 1141.55C647.238 1141.55 667.128 1158.95 666.858 1180.42Z" fill="url(#paint16_radial_2222_9298)"/>
    <path style="mix-blend-mode:color-dodge" d="M956.869 1254.99C956.599 1293.15 920.679 1324.12 876.639 1324.12C832.599 1324.12 797.209 1293.15 797.589 1254.99C797.969 1216.89 833.889 1186.04 877.819 1186.04C921.749 1186.04 957.139 1216.89 956.869 1254.99Z" fill="url(#paint17_radial_2222_9298)"/>
    <path style="mix-blend-mode:color-dodge" d="M827.88 993.954C827.6 1023.46 799.64 1047.4 765.43 1047.4C731.22 1047.4 703.77 1023.46 704.12 993.954C704.47 964.484 732.43 940.615 766.57 940.615C800.71 940.615 828.16 964.484 827.88 993.954Z" fill="url(#paint18_radial_2222_9298)"/>
    <path style="mix-blend-mode:color-dodge" d="M74.8012 1082.97C73.9712 1118.75 39.7012 1147.8 -1.71884 1147.8C-43.1388 1147.8 -75.9789 1118.75 -75.0389 1082.97C-74.1089 1047.24 -39.8489 1018.3 1.48111 1018.3C42.8111 1018.3 75.6412 1047.24 74.8112 1082.97H74.8012Z" fill="url(#paint19_radial_2222_9298)"/>
    <path style="mix-blend-mode:color-dodge" d="M15.8981 1220.09C14.9381 1259.67 -22.9019 1291.8 -68.6119 1291.8C-114.322 1291.8 -150.502 1259.67 -149.422 1220.09C-148.342 1180.56 -110.502 1148.56 -64.9117 1148.56C-19.3217 1148.56 16.8681 1180.56 15.8981 1220.09Z" fill="url(#paint20_radial_2222_9298)"/>
    <path style="mix-blend-mode:color-dodge" d="M505.5 1286.36C505.22 1304.56 487.99 1319.31 467.01 1319.31C446.03 1319.31 429.27 1304.56 429.57 1286.36C429.87 1268.19 447.11 1253.46 468.06 1253.46C489.01 1253.46 505.78 1268.19 505.5 1286.36Z" fill="url(#paint21_radial_2222_9298)"/>
    <path style="mix-blend-mode:color-dodge" d="M679.431 1256.32C679.141 1279.79 656.961 1298.84 629.881 1298.84C602.801 1298.84 581.111 1279.8 581.441 1256.32C581.771 1232.87 603.951 1213.88 630.991 1213.88C658.031 1213.88 679.721 1232.87 679.431 1256.32Z" fill="url(#paint22_radial_2222_9298)"/>
    <path style="mix-blend-mode:color-dodge" d="M1115.63 1099.68C1115.49 1133.06 1084.06 1160.15 1045.42 1160.15C1006.78 1160.15 975.65 1133.06 975.88 1099.68C976.11 1066.35 1007.54 1039.34 1046.09 1039.34C1084.64 1039.34 1115.77 1066.34 1115.63 1099.68Z" fill="url(#paint23_radial_2222_9298)"/>
    <path style="mix-blend-mode:color-dodge" d="M839.229 841.227C838.989 867.37 814.139 888.587 783.739 888.587C753.339 888.587 728.929 867.37 729.229 841.227C729.529 815.109 754.369 793.948 784.719 793.948C815.069 793.948 839.479 815.109 839.229 841.227Z" fill="url(#paint24_radial_2222_9298)"/>
    <path style="mix-blend-mode:color-dodge" d="M656.898 36.6153C656.638 56.7549 637.158 73.0932 613.388 73.0932C589.618 73.0932 570.588 56.7549 570.878 36.6153C571.168 16.4918 590.648 0.185547 614.388 0.185547C638.128 0.185547 657.158 16.4918 656.898 36.6153Z" fill="url(#paint25_radial_2222_9298)"/>
    <path style="mix-blend-mode:color-dodge" d="M299.81 102.354C299.62 111.966 290.29 119.753 278.97 119.753C267.65 119.753 258.62 111.958 258.82 102.354C259.01 92.7504 268.35 84.9629 279.66 84.9629C290.97 84.9629 300 92.7504 299.81 102.354Z" fill="url(#paint26_radial_2222_9298)"/>
    <path style="mix-blend-mode:color-dodge" d="M134.752 122.662C134.362 140.085 117.392 154.222 96.8617 154.222C76.3317 154.222 60.0215 140.085 60.4415 122.662C60.8615 105.247 77.8217 91.1348 98.3317 91.1348C118.842 91.1348 135.142 105.247 134.752 122.662Z" fill="url(#paint27_radial_2222_9298)"/>
    <path style="mix-blend-mode:color-dodge" d="M77.1095 124.054C76.5695 147.014 54.1893 165.651 27.1293 165.651C0.0693111 165.651 -21.3906 147.022 -20.8006 124.054C-20.2106 101.109 2.15936 82.5205 29.1794 82.5205C56.1994 82.5205 77.6595 101.109 77.1095 124.054Z" fill="url(#paint28_radial_2222_9298)"/>
    <path style="mix-blend-mode:color-dodge" d="M1531.49 623.421C1531.56 645.248 1510.97 662.953 1485.49 662.953C1460.01 662.953 1439.33 645.248 1439.29 623.421C1439.25 601.61 1459.85 583.945 1485.29 583.945C1510.73 583.945 1531.42 601.61 1531.49 623.421Z" fill="url(#paint29_radial_2222_9298)"/>
    <path style="mix-blend-mode:color-dodge" d="M1384.99 705.016C1385.01 728.732 1362.61 747.98 1334.96 747.98C1307.31 747.98 1284.92 728.74 1284.95 705.016C1284.98 681.316 1307.37 662.125 1334.98 662.125C1362.59 662.125 1384.97 681.324 1384.99 705.016Z" fill="url(#paint30_radial_2222_9298)"/>
    <path style="mix-blend-mode:color-dodge" d="M703.352 650.295C703.152 666.963 687.222 680.488 667.772 680.488C648.322 680.488 632.732 666.963 632.952 650.295C633.172 633.635 649.102 620.134 668.522 620.134C687.942 620.134 703.542 633.635 703.342 650.295H703.352Z" fill="url(#paint31_radial_2222_9298)"/>
    <defs>
        <radialGradient id="paint0_radial_2222_9298" cx="0" cy="0" r="1" gradientUnits="userSpaceOnUse" gradientTransform="translate(1435.07 773.648) scale(25.3647 24.5597)">
            <stop stop-color="#F9FEFF"/>
            <stop offset="0.02" stop-color="#E8ECED"/>
            <stop offset="0.07" stop-color="#B7BBBC"/>
            <stop offset="0.12" stop-color="#8C8E8F"/>
            <stop offset="0.18" stop-color="#666868"/>
            <stop offset="0.24" stop-color="#464748"/>
            <stop offset="0.31" stop-color="#2C2D2D"/>
            <stop offset="0.38" stop-color="#181919"/>
            <stop offset="0.46" stop-color="#0A0A0A"/>
            <stop offset="0.56" stop-color="#020202"/>
            <stop offset="0.72"/>
        </radialGradient>
        <radialGradient id="paint1_radial_2222_9298" cx="0" cy="0" r="1" gradientUnits="userSpaceOnUse" gradientTransform="translate(1107.71 422.169) scale(80.1116 77.5689)">
            <stop stop-color="#F9FEFF"/>
            <stop offset="0.02" stop-color="#E8ECED"/>
            <stop offset="0.07" stop-color="#B7BBBC"/>
            <stop offset="0.12" stop-color="#8C8E8F"/>
            <stop offset="0.18" stop-color="#666868"/>
            <stop offset="0.24" stop-color="#464748"/>
            <stop offset="0.31" stop-color="#2C2D2D"/>
            <stop offset="0.38" stop-color="#181919"/>
            <stop offset="0.46" stop-color="#0A0A0A"/>
            <stop offset="0.56" stop-color="#020202"/>
            <stop offset="0.72"/>
        </radialGradient>
        <radialGradient id="paint2_radial_2222_9298" cx="0" cy="0" r="1" gradientUnits="userSpaceOnUse" gradientTransform="translate(1056.25 369.377) scale(79.9954 77.4564)">
            <stop stop-color="#F9FEFF"/>
            <stop offset="0.02" stop-color="#E8ECED"/>
            <stop offset="0.07" stop-color="#B7BBBC"/>
            <stop offset="0.12" stop-color="#8C8E8F"/>
            <stop offset="0.18" stop-color="#666868"/>
            <stop offset="0.24" stop-color="#464748"/>
            <stop offset="0.31" stop-color="#2C2D2D"/>
            <stop offset="0.38" stop-color="#181919"/>
            <stop offset="0.46" stop-color="#0A0A0A"/>
            <stop offset="0.56" stop-color="#020202"/>
            <stop offset="0.72"/>
        </radialGradient>
        <radialGradient id="paint3_radial_2222_9298" cx="0" cy="0" r="1" gradientUnits="userSpaceOnUse" gradientTransform="translate(1108.62 621.604) scale(70.8987 68.6483)">
            <stop stop-color="#F9FEFF"/>
            <stop offset="0.02" stop-color="#E8ECED"/>
            <stop offset="0.07" stop-color="#B7BBBC"/>
            <stop offset="0.12" stop-color="#8C8E8F"/>
            <stop offset="0.18" stop-color="#666868"/>
            <stop offset="0.24" stop-color="#464748"/>
            <stop offset="0.31" stop-color="#2C2D2D"/>
            <stop offset="0.38" stop-color="#181919"/>
            <stop offset="0.46" stop-color="#0A0A0A"/>
            <stop offset="0.56" stop-color="#020202"/>
            <stop offset="0.72"/>
        </radialGradient>
        <radialGradient id="paint4_radial_2222_9298" cx="0" cy="0" r="1" gradientUnits="userSpaceOnUse" gradientTransform="translate(336.81 864.831) scale(67.3627 65.2247)">
            <stop stop-color="#F9FEFF"/>
            <stop offset="0.02" stop-color="#E8ECED"/>
            <stop offset="0.07" stop-color="#B7BBBC"/>
            <stop offset="0.12" stop-color="#8C8E8F"/>
            <stop offset="0.18" stop-color="#666868"/>
            <stop offset="0.24" stop-color="#464748"/>
            <stop offset="0.31" stop-color="#2C2D2D"/>
            <stop offset="0.38" stop-color="#181919"/>
            <stop offset="0.46" stop-color="#0A0A0A"/>
            <stop offset="0.56" stop-color="#020202"/>
            <stop offset="0.72"/>
        </radialGradient>
        <radialGradient id="paint5_radial_2222_9298" cx="0" cy="0" r="1" gradientUnits="userSpaceOnUse" gradientTransform="translate(518.978 1033.93) scale(42.3384 40.9944)">
            <stop stop-color="#F9FEFF"/>
            <stop offset="0.02" stop-color="#E8ECED"/>
            <stop offset="0.07" stop-color="#B7BBBC"/>
            <stop offset="0.12" stop-color="#8C8E8F"/>
            <stop offset="0.18" stop-color="#666868"/>
            <stop offset="0.24" stop-color="#464748"/>
            <stop offset="0.31" stop-color="#2C2D2D"/>
            <stop offset="0.38" stop-color="#181919"/>
            <stop offset="0.46" stop-color="#0A0A0A"/>
            <stop offset="0.56" stop-color="#020202"/>
            <stop offset="0.72"/>
        </radialGradient>
        <radialGradient id="paint6_radial_2222_9298" cx="0" cy="0" r="1" gradientUnits="userSpaceOnUse" gradientTransform="translate(1060.35 844.16) scale(57.8177 55.9827)">
            <stop stop-color="#F9FEFF"/>
            <stop offset="0.02" stop-color="#E8ECED"/>
            <stop offset="0.07" stop-color="#B7BBBC"/>
            <stop offset="0.12" stop-color="#8C8E8F"/>
            <stop offset="0.18" stop-color="#666868"/>
            <stop offset="0.24" stop-color="#464748"/>
            <stop offset="0.31" stop-color="#2C2D2D"/>
            <stop offset="0.38" stop-color="#181919"/>
            <stop offset="0.46" stop-color="#0A0A0A"/>
            <stop offset="0.56" stop-color="#020202"/>
            <stop offset="0.72"/>
        </radialGradient>
        <radialGradient id="paint7_radial_2222_9298" cx="0" cy="0" r="1" gradientUnits="userSpaceOnUse" gradientTransform="translate(234.074 242.834) scale(37.5824 36.3896)">
            <stop stop-color="#F9FEFF"/>
            <stop offset="0.02" stop-color="#E8ECED"/>
            <stop offset="0.07" stop-color="#B7BBBC"/>
            <stop offset="0.12" stop-color="#8C8E8F"/>
            <stop offset="0.18" stop-color="#666868"/>
            <stop offset="0.24" stop-color="#464748"/>
            <stop offset="0.31" stop-color="#2C2D2D"/>
            <stop offset="0.38" stop-color="#181919"/>
            <stop offset="0.46" stop-color="#0A0A0A"/>
            <stop offset="0.56" stop-color="#020202"/>
            <stop offset="0.72"/>
        </radialGradient>
        <radialGradient id="paint8_radial_2222_9298" cx="0" cy="0" r="1" gradientUnits="userSpaceOnUse" gradientTransform="translate(62.9103 628.942) scale(50.7213 49.1115)">
            <stop stop-color="#F9FEFF"/>
            <stop offset="0.02" stop-color="#E8ECED"/>
            <stop offset="0.07" stop-color="#B7BBBC"/>
            <stop offset="0.12" stop-color="#8C8E8F"/>
            <stop offset="0.18" stop-color="#666868"/>
            <stop offset="0.24" stop-color="#464748"/>
            <stop offset="0.31" stop-color="#2C2D2D"/>
            <stop offset="0.38" stop-color="#181919"/>
            <stop offset="0.46" stop-color="#0A0A0A"/>
            <stop offset="0.56" stop-color="#020202"/>
            <stop offset="0.72"/>
        </radialGradient>
        <radialGradient id="paint9_radial_2222_9298" cx="0" cy="0" r="1" gradientUnits="userSpaceOnUse" gradientTransform="translate(530.665 414.783) scale(28.4275 27.5252)">
            <stop stop-color="#F9FEFF"/>
            <stop offset="0.02" stop-color="#E8ECED"/>
            <stop offset="0.07" stop-color="#B7BBBC"/>
            <stop offset="0.12" stop-color="#8C8E8F"/>
            <stop offset="0.18" stop-color="#666868"/>
            <stop offset="0.24" stop-color="#464748"/>
            <stop offset="0.31" stop-color="#2C2D2D"/>
            <stop offset="0.38" stop-color="#181919"/>
            <stop offset="0.46" stop-color="#0A0A0A"/>
            <stop offset="0.56" stop-color="#020202"/>
            <stop offset="0.72"/>
        </radialGradient>
        <radialGradient id="paint10_radial_2222_9298" cx="0" cy="0" r="1" gradientUnits="userSpaceOnUse" gradientTransform="translate(566.76 458.575) scale(25.8047 24.9857)">
            <stop stop-color="#F9FEFF"/>
            <stop offset="0.02" stop-color="#E8ECED"/>
            <stop offset="0.07" stop-color="#B7BBBC"/>
            <stop offset="0.12" stop-color="#8C8E8F"/>
            <stop offset="0.18" stop-color="#666868"/>
            <stop offset="0.24" stop-color="#464748"/>
            <stop offset="0.31" stop-color="#2C2D2D"/>
            <stop offset="0.38" stop-color="#181919"/>
            <stop offset="0.46" stop-color="#0A0A0A"/>
            <stop offset="0.56" stop-color="#020202"/>
            <stop offset="0.72"/>
        </radialGradient>
        <radialGradient id="paint11_radial_2222_9298" cx="0" cy="0" r="1" gradientUnits="userSpaceOnUse" gradientTransform="translate(628.852 276.322) scale(37.1841 36.0037)">
            <stop stop-color="#F9FEFF"/>
            <stop offset="0.02" stop-color="#E8ECED"/>
            <stop offset="0.07" stop-color="#B7BBBC"/>
            <stop offset="0.12" stop-color="#8C8E8F"/>
            <stop offset="0.18" stop-color="#666868"/>
            <stop offset="0.24" stop-color="#464748"/>
            <stop offset="0.31" stop-color="#2C2D2D"/>
            <stop offset="0.38" stop-color="#181919"/>
            <stop offset="0.46" stop-color="#0A0A0A"/>
            <stop offset="0.56" stop-color="#020202"/>
            <stop offset="0.72"/>
        </radialGradient>
        <radialGradient id="paint12_radial_2222_9298" cx="0" cy="0" r="1" gradientUnits="userSpaceOnUse" gradientTransform="translate(1352.66 814.289) scale(33.1253 32.074)">
            <stop stop-color="#F9FEFF"/>
            <stop offset="0.02" stop-color="#E8ECED"/>
            <stop offset="0.07" stop-color="#B7BBBC"/>
            <stop offset="0.12" stop-color="#8C8E8F"/>
            <stop offset="0.18" stop-color="#666868"/>
            <stop offset="0.24" stop-color="#464748"/>
            <stop offset="0.31" stop-color="#2C2D2D"/>
            <stop offset="0.38" stop-color="#181919"/>
            <stop offset="0.46" stop-color="#0A0A0A"/>
            <stop offset="0.56" stop-color="#020202"/>
            <stop offset="0.72"/>
        </radialGradient>
        <radialGradient id="paint13_radial_2222_9298" cx="0" cy="0" r="1" gradientUnits="userSpaceOnUse" gradientTransform="translate(1437.18 819.947) scale(22.6341 21.9157)">
            <stop stop-color="#F9FEFF"/>
            <stop offset="0.02" stop-color="#E8ECED"/>
            <stop offset="0.07" stop-color="#B7BBBC"/>
            <stop offset="0.12" stop-color="#8C8E8F"/>
            <stop offset="0.18" stop-color="#666868"/>
            <stop offset="0.24" stop-color="#464748"/>
            <stop offset="0.31" stop-color="#2C2D2D"/>
            <stop offset="0.38" stop-color="#181919"/>
            <stop offset="0.46" stop-color="#0A0A0A"/>
            <stop offset="0.56" stop-color="#020202"/>
            <stop offset="0.72"/>
        </radialGradient>
        <radialGradient id="paint14_radial_2222_9298" cx="0" cy="0" r="1" gradientUnits="userSpaceOnUse" gradientTransform="translate(1000.36 852.953) scale(55.5602 53.7967)">
            <stop stop-color="#F9FEFF"/>
            <stop offset="0.02" stop-color="#E8ECED"/>
            <stop offset="0.07" stop-color="#B7BBBC"/>
            <stop offset="0.12" stop-color="#8C8E8F"/>
            <stop offset="0.18" stop-color="#666868"/>
            <stop offset="0.24" stop-color="#464748"/>
            <stop offset="0.31" stop-color="#2C2D2D"/>
            <stop offset="0.38" stop-color="#181919"/>
            <stop offset="0.46" stop-color="#0A0A0A"/>
            <stop offset="0.56" stop-color="#020202"/>
            <stop offset="0.72"/>
        </radialGradient>
        <radialGradient id="paint15_radial_2222_9298" cx="0" cy="0" r="1" gradientUnits="userSpaceOnUse" gradientTransform="translate(702.349 898.962) scale(58.0087 56.1675)">
            <stop stop-color="#F9FEFF"/>
            <stop offset="0.02" stop-color="#E8ECED"/>
            <stop offset="0.07" stop-color="#B7BBBC"/>
            <stop offset="0.12" stop-color="#8C8E8F"/>
            <stop offset="0.18" stop-color="#666868"/>
            <stop offset="0.24" stop-color="#464748"/>
            <stop offset="0.31" stop-color="#2C2D2D"/>
            <stop offset="0.38" stop-color="#181919"/>
            <stop offset="0.46" stop-color="#0A0A0A"/>
            <stop offset="0.56" stop-color="#020202"/>
            <stop offset="0.72"/>
        </radialGradient>
        <radialGradient id="paint16_radial_2222_9298" cx="0" cy="0" r="1" gradientUnits="userSpaceOnUse" gradientTransform="translate(608.409 1180.44) scale(42.4878 41.1392)">
            <stop stop-color="#F9FEFF"/>
            <stop offset="0.02" stop-color="#E8ECED"/>
            <stop offset="0.07" stop-color="#B7BBBC"/>
            <stop offset="0.12" stop-color="#8C8E8F"/>
            <stop offset="0.18" stop-color="#666868"/>
            <stop offset="0.24" stop-color="#464748"/>
            <stop offset="0.31" stop-color="#2C2D2D"/>
            <stop offset="0.38" stop-color="#181919"/>
            <stop offset="0.46" stop-color="#0A0A0A"/>
            <stop offset="0.56" stop-color="#020202"/>
            <stop offset="0.72"/>
        </radialGradient>
        <radialGradient id="paint17_radial_2222_9298" cx="0" cy="0" r="1" gradientUnits="userSpaceOnUse" gradientTransform="translate(862.274 1255.08) scale(75.3557 72.9639)">
            <stop stop-color="#F9FEFF"/>
            <stop offset="0.02" stop-color="#E8ECED"/>
            <stop offset="0.07" stop-color="#B7BBBC"/>
            <stop offset="0.12" stop-color="#8C8E8F"/>
            <stop offset="0.18" stop-color="#666868"/>
            <stop offset="0.24" stop-color="#464748"/>
            <stop offset="0.31" stop-color="#2C2D2D"/>
            <stop offset="0.38" stop-color="#181919"/>
            <stop offset="0.46" stop-color="#0A0A0A"/>
            <stop offset="0.56" stop-color="#020202"/>
            <stop offset="0.72"/>
        </radialGradient>
        <radialGradient id="paint18_radial_2222_9298" cx="0" cy="0" r="1" gradientUnits="userSpaceOnUse" gradientTransform="translate(751.678 994.002) scale(58.4236 56.5694)">
            <stop stop-color="#F9FEFF"/>
            <stop offset="0.02" stop-color="#E8ECED"/>
            <stop offset="0.07" stop-color="#B7BBBC"/>
            <stop offset="0.12" stop-color="#8C8E8F"/>
            <stop offset="0.18" stop-color="#666868"/>
            <stop offset="0.24" stop-color="#464748"/>
            <stop offset="0.31" stop-color="#2C2D2D"/>
            <stop offset="0.38" stop-color="#181919"/>
            <stop offset="0.46" stop-color="#0A0A0A"/>
            <stop offset="0.56" stop-color="#020202"/>
            <stop offset="0.72"/>
        </radialGradient>
        <radialGradient id="paint19_radial_2222_9298" cx="0" cy="0" r="1" gradientUnits="userSpaceOnUse" gradientTransform="translate(-10.1367 1083.05) scale(70.799 68.5518)">
            <stop stop-color="#F9FEFF"/>
            <stop offset="0.02" stop-color="#E8ECED"/>
            <stop offset="0.07" stop-color="#B7BBBC"/>
            <stop offset="0.12" stop-color="#8C8E8F"/>
            <stop offset="0.18" stop-color="#666868"/>
            <stop offset="0.24" stop-color="#464748"/>
            <stop offset="0.31" stop-color="#2C2D2D"/>
            <stop offset="0.38" stop-color="#181919"/>
            <stop offset="0.46" stop-color="#0A0A0A"/>
            <stop offset="0.56" stop-color="#020202"/>
            <stop offset="0.72"/>
        </radialGradient>
        <radialGradient id="paint20_radial_2222_9298" cx="0" cy="0" r="1" gradientUnits="userSpaceOnUse" gradientTransform="translate(-76.3985 1220.18) scale(78.2025 75.7204)">
            <stop stop-color="#F9FEFF"/>
            <stop offset="0.02" stop-color="#E8ECED"/>
            <stop offset="0.07" stop-color="#B7BBBC"/>
            <stop offset="0.12" stop-color="#8C8E8F"/>
            <stop offset="0.18" stop-color="#666868"/>
            <stop offset="0.24" stop-color="#464748"/>
            <stop offset="0.31" stop-color="#2C2D2D"/>
            <stop offset="0.38" stop-color="#181919"/>
            <stop offset="0.46" stop-color="#0A0A0A"/>
            <stop offset="0.56" stop-color="#020202"/>
            <stop offset="0.72"/>
        </radialGradient>
        <radialGradient id="paint21_radial_2222_9298" cx="0" cy="0" r="1" gradientUnits="userSpaceOnUse" gradientTransform="translate(454.887 1286.38) scale(35.9307 34.7902)">
            <stop stop-color="#F9FEFF"/>
            <stop offset="0.02" stop-color="#E8ECED"/>
            <stop offset="0.07" stop-color="#B7BBBC"/>
            <stop offset="0.12" stop-color="#8C8E8F"/>
            <stop offset="0.18" stop-color="#666868"/>
            <stop offset="0.24" stop-color="#464748"/>
            <stop offset="0.31" stop-color="#2C2D2D"/>
            <stop offset="0.38" stop-color="#181919"/>
            <stop offset="0.46" stop-color="#0A0A0A"/>
            <stop offset="0.56" stop-color="#020202"/>
            <stop offset="0.72"/>
        </radialGradient>
        <radialGradient id="paint22_radial_2222_9298" cx="0" cy="0" r="1" gradientUnits="userSpaceOnUse" gradientTransform="translate(616.87 1256.36) scale(46.3638 44.8922)">
            <stop stop-color="#F9FEFF"/>
            <stop offset="0.02" stop-color="#E8ECED"/>
            <stop offset="0.07" stop-color="#B7BBBC"/>
            <stop offset="0.12" stop-color="#8C8E8F"/>
            <stop offset="0.18" stop-color="#666868"/>
            <stop offset="0.24" stop-color="#464748"/>
            <stop offset="0.31" stop-color="#2C2D2D"/>
            <stop offset="0.38" stop-color="#181919"/>
            <stop offset="0.46" stop-color="#0A0A0A"/>
            <stop offset="0.56" stop-color="#020202"/>
            <stop offset="0.72"/>
        </radialGradient>
        <radialGradient id="paint23_radial_2222_9298" cx="0" cy="0" r="1" gradientUnits="userSpaceOnUse" gradientTransform="translate(1029.86 1099.75) scale(66.0265 63.9308)">
            <stop stop-color="#F9FEFF"/>
            <stop offset="0.02" stop-color="#E8ECED"/>
            <stop offset="0.07" stop-color="#B7BBBC"/>
            <stop offset="0.12" stop-color="#8C8E8F"/>
            <stop offset="0.18" stop-color="#666868"/>
            <stop offset="0.24" stop-color="#464748"/>
            <stop offset="0.31" stop-color="#2C2D2D"/>
            <stop offset="0.38" stop-color="#181919"/>
            <stop offset="0.46" stop-color="#0A0A0A"/>
            <stop offset="0.56" stop-color="#020202"/>
            <stop offset="0.72"/>
        </radialGradient>
        <radialGradient id="paint24_radial_2222_9298" cx="0" cy="0" r="1" gradientUnits="userSpaceOnUse" gradientTransform="translate(769.804 841.267) scale(51.8667 50.2205)">
            <stop stop-color="#F9FEFF"/>
            <stop offset="0.02" stop-color="#E8ECED"/>
            <stop offset="0.07" stop-color="#B7BBBC"/>
            <stop offset="0.12" stop-color="#8C8E8F"/>
            <stop offset="0.18" stop-color="#666868"/>
            <stop offset="0.24" stop-color="#464748"/>
            <stop offset="0.31" stop-color="#2C2D2D"/>
            <stop offset="0.38" stop-color="#181919"/>
            <stop offset="0.46" stop-color="#0A0A0A"/>
            <stop offset="0.56" stop-color="#020202"/>
            <stop offset="0.72"/>
        </radialGradient>
        <radialGradient id="paint25_radial_2222_9298" cx="0" cy="0" r="1" gradientUnits="userSpaceOnUse" gradientTransform="translate(600.425 36.6394) scale(40.2882 39.0094)">
            <stop stop-color="#F9FEFF"/>
            <stop offset="0.02" stop-color="#E8ECED"/>
            <stop offset="0.07" stop-color="#B7BBBC"/>
            <stop offset="0.12" stop-color="#8C8E8F"/>
            <stop offset="0.18" stop-color="#666868"/>
            <stop offset="0.24" stop-color="#464748"/>
            <stop offset="0.31" stop-color="#2C2D2D"/>
            <stop offset="0.38" stop-color="#181919"/>
            <stop offset="0.46" stop-color="#0A0A0A"/>
            <stop offset="0.56" stop-color="#020202"/>
            <stop offset="0.72"/>
        </radialGradient>
        <radialGradient id="paint26_radial_2222_9298" cx="0" cy="0" r="1" gradientUnits="userSpaceOnUse" gradientTransform="translate(267.721 102.354) scale(19.2145 18.6046)">
            <stop stop-color="#F9FEFF"/>
            <stop offset="0.02" stop-color="#E8ECED"/>
            <stop offset="0.07" stop-color="#B7BBBC"/>
            <stop offset="0.12" stop-color="#8C8E8F"/>
            <stop offset="0.18" stop-color="#666868"/>
            <stop offset="0.24" stop-color="#464748"/>
            <stop offset="0.31" stop-color="#2C2D2D"/>
            <stop offset="0.38" stop-color="#181919"/>
            <stop offset="0.46" stop-color="#0A0A0A"/>
            <stop offset="0.56" stop-color="#020202"/>
            <stop offset="0.72"/>
        </radialGradient>
        <radialGradient id="paint27_radial_2222_9298" cx="0" cy="0" r="1" gradientUnits="userSpaceOnUse" gradientTransform="translate(87.0318 122.678) scale(34.8351 33.7294)">
            <stop stop-color="#F9FEFF"/>
            <stop offset="0.02" stop-color="#E8ECED"/>
            <stop offset="0.07" stop-color="#B7BBBC"/>
            <stop offset="0.12" stop-color="#8C8E8F"/>
            <stop offset="0.18" stop-color="#666868"/>
            <stop offset="0.24" stop-color="#464748"/>
            <stop offset="0.31" stop-color="#2C2D2D"/>
            <stop offset="0.38" stop-color="#181919"/>
            <stop offset="0.46" stop-color="#0A0A0A"/>
            <stop offset="0.56" stop-color="#020202"/>
            <stop offset="0.72"/>
        </radialGradient>
        <radialGradient id="paint28_radial_2222_9298" cx="0" cy="0" r="1" gradientUnits="userSpaceOnUse" gradientTransform="translate(17.9903 124.086) scale(45.8991 44.4422)">
            <stop stop-color="#F9FEFF"/>
            <stop offset="0.02" stop-color="#E8ECED"/>
            <stop offset="0.07" stop-color="#B7BBBC"/>
            <stop offset="0.12" stop-color="#8C8E8F"/>
            <stop offset="0.18" stop-color="#666868"/>
            <stop offset="0.24" stop-color="#464748"/>
            <stop offset="0.31" stop-color="#2C2D2D"/>
            <stop offset="0.38" stop-color="#181919"/>
            <stop offset="0.46" stop-color="#0A0A0A"/>
            <stop offset="0.56" stop-color="#020202"/>
            <stop offset="0.72"/>
        </radialGradient>
        <radialGradient id="paint29_radial_2222_9298" cx="0" cy="0" r="1" gradientUnits="userSpaceOnUse" gradientTransform="translate(1467.01 623.453) scale(43.3924 42.015)">
            <stop stop-color="#F9FEFF"/>
            <stop offset="0.02" stop-color="#E8ECED"/>
            <stop offset="0.07" stop-color="#B7BBBC"/>
            <stop offset="0.12" stop-color="#8C8E8F"/>
            <stop offset="0.18" stop-color="#666868"/>
            <stop offset="0.24" stop-color="#464748"/>
            <stop offset="0.31" stop-color="#2C2D2D"/>
            <stop offset="0.38" stop-color="#181919"/>
            <stop offset="0.46" stop-color="#0A0A0A"/>
            <stop offset="0.56" stop-color="#020202"/>
            <stop offset="0.72"/>
        </radialGradient>
        <radialGradient id="paint30_radial_2222_9298" cx="0" cy="0" r="1" gradientUnits="userSpaceOnUse" gradientTransform="translate(1317.45 705.048) scale(47.1108 45.6155)">
            <stop stop-color="#F9FEFF"/>
            <stop offset="0.02" stop-color="#E8ECED"/>
            <stop offset="0.07" stop-color="#B7BBBC"/>
            <stop offset="0.12" stop-color="#8C8E8F"/>
            <stop offset="0.18" stop-color="#666868"/>
            <stop offset="0.24" stop-color="#464748"/>
            <stop offset="0.31" stop-color="#2C2D2D"/>
            <stop offset="0.38" stop-color="#181919"/>
            <stop offset="0.46" stop-color="#0A0A0A"/>
            <stop offset="0.56" stop-color="#020202"/>
            <stop offset="0.72"/>
        </radialGradient>
        <radialGradient id="paint31_radial_2222_9298" cx="0" cy="0" r="1" gradientUnits="userSpaceOnUse" gradientTransform="translate(654.378 650.311) scale(33.142 32.09)">
            <stop stop-color="#F9FEFF"/>
            <stop offset="0.02" stop-color="#E8ECED"/>
            <stop offset="0.07" stop-color="#B7BBBC"/>
            <stop offset="0.12" stop-color="#8C8E8F"/>
            <stop offset="0.18" stop-color="#666868"/>
            <stop offset="0.24" stop-color="#464748"/>
            <stop offset="0.31" stop-color="#2C2D2D"/>
            <stop offset="0.38" stop-color="#181919"/>
            <stop offset="0.46" stop-color="#0A0A0A"/>
            <stop offset="0.56" stop-color="#020202"/>
            <stop offset="0.72"/>
        </radialGradient>
    </defs>
</svg>
